<svg t="1710724658235" class="icon" viewBox="0 0 1024 1024" version="1.1" xmlns="http://www.w3.org/2000/svg" p-id="6175" width="200" height="200"><path d="M159.064724 20.841814l705.870552 0 0 950.386713-705.870552 0 0-950.386713Z" fill="#FAB952" p-id="6176"></path><path d="M814.914923 992.070341H209.085077a70.945534 70.945534 0 0 1-70.862167-70.862167V70.862167A70.945534 70.945534 0 0 1 209.085077 0h605.829846a70.945534 70.945534 0 0 1 70.862167 70.862167v850.346007a70.945534 70.945534 0 0 1-70.862167 70.862167zM209.085077 41.683628A29.178539 29.178539 0 0 0 179.906537 70.862167v850.346007a29.178539 29.178539 0 0 0 29.17854 29.178539h605.829846a29.178539 29.178539 0 0 0 29.17854-29.178539V70.862167a29.178539 29.178539 0 0 0-29.17854-29.178539z" fill="#666666" p-id="6177"></path><path d="M675.941708 20.841814v950.386713" fill="#FFFFFF" p-id="6178"></path><path d="M675.941708 992.070341a20.841814 20.841814 0 0 1-20.841814-20.841814V20.841814a20.841814 20.841814 0 0 1 41.683628 0v950.386713a20.841814 20.841814 0 0 1-20.841814 20.841814z" fill="#666666" p-id="6179"></path><path d="M317.045673 197.163559v34.013841a106.62672 106.62672 0 1 0 213.170072 0v-34.013841z" fill="#EBE5DF" p-id="6180"></path><path d="M423.672393 358.479199A127.635268 127.635268 0 0 1 296.620695 231.1774v-34.013841a20.841814 20.841814 0 0 1 20.841814-20.841813H530.049011a20.758447 20.758447 0 0 1 20.841814 20.841813v34.013841A127.551901 127.551901 0 0 1 423.672393 358.479199zM338.304323 218.005373v13.172027a85.784906 85.784906 0 1 0 171.486445 0v-13.172027z" fill="#666666" p-id="6181"></path><path d="M241.681674 628.005536l362.730929 0 0 268.859399-362.730929 0 0-268.859399Z" fill="#EBE5DF" p-id="6182"></path><path d="M579.402426 917.706749H266.691851a45.851991 45.851991 0 0 1-45.851991-45.85199V653.015713a45.935358 45.935358 0 0 1 45.851991-45.851991h312.710575a45.935358 45.935358 0 0 1 45.851991 45.851991v218.839046a45.851991 45.851991 0 0 1-45.851991 45.85199zM266.691851 648.84735a4.25173 4.25173 0 0 0-4.168363 4.168363v218.839046a4.168363 4.168363 0 0 0 4.168363 4.168362h312.710575a4.168363 4.168363 0 0 0 4.168363-4.168362V653.015713a4.168363 4.168363 0 0 0-4.168363-4.168363z" fill="#666666" p-id="6183"></path><path d="M489.949361 896.864935H357.312057l-24.343238-183.991533a4.084996 4.084996 0 0 1 4.084995-4.668566h173.237157a4.084996 4.084996 0 0 1 4.084996 4.668566z" fill="#F98003" p-id="6184"></path><path d="M489.949361 917.706749H357.312057a20.841814 20.841814 0 0 1-20.675079-18.090694l-24.343239-183.991533a25.010177 25.010177 0 0 1 25.010177-28.2615h172.987055a25.010177 25.010177 0 0 1 25.010177 28.2615l-24.426606 183.991533a20.758447 20.758447 0 0 1-20.925181 18.090694z m-114.379875-41.683628H471.691932l19.507938-146.976471h-135.054954z" fill="#666666" p-id="6185"></path><path d="M426.923716 628.005536v30.429048" fill="#FFFFFF" p-id="6186"></path><path d="M426.840348 679.276398a20.841814 20.841814 0 0 1-20.841813-20.841814v-30.429048a20.841814 20.841814 0 0 1 41.683627 0V658.601319a20.758447 20.758447 0 0 1-20.841814 20.675079z" fill="#666666" p-id="6187"></path><path d="M723.210942 334.886266h91.703981" fill="#FFFFFF" p-id="6188"></path><path d="M814.914923 355.728079h-91.703981a20.841814 20.841814 0 0 1 0-41.683627h91.703981a20.841814 20.841814 0 0 1 0 41.683627z" fill="#666666" p-id="6189"></path><path d="M769.062933 627.088496m-47.185867 0a47.185867 47.185867 0 1 0 94.371733 0 47.185867 47.185867 0 1 0-94.371733 0Z" fill="#BFAB90" p-id="6190"></path><path d="M769.062933 695.116177a68.027681 68.027681 0 1 1 67.944313-68.027681 68.111048 68.111048 0 0 1-67.944313 68.027681z m0-94.288366a26.344053 26.344053 0 1 0 26.260685 26.260685 26.344053 26.344053 0 0 0-26.260685-26.260685z" fill="#666666" p-id="6191"></path><path d="M225.841895 971.228527h42.934137v28.011398a4.001628 4.001628 0 0 1-4.001628 4.001628H229.926891a4.001628 4.001628 0 0 1-4.001628-4.001628v-28.011398h-0.083368z" fill="#BFAB90" p-id="6192"></path><path d="M264.857771 1024H229.926891a25.010177 25.010177 0 0 1-25.010177-25.010177v-27.761296a20.841814 20.841814 0 0 1 20.841814-20.841814h42.934137a20.841814 20.841814 0 0 1 20.841814 20.841814v28.011398a25.010177 25.010177 0 0 1-24.676708 24.760075z" fill="#666666" p-id="6193"></path><path d="M753.223154 971.228527h42.934137v28.011398a4.001628 4.001628 0 0 1-4.001629 4.001628h-35.014247a4.001628 4.001628 0 0 1-4.001628-4.001628v-28.011398h0.083367z" fill="#BFAB90" p-id="6194"></path><path d="M792.155662 1024h-34.93088a25.010177 25.010177 0 0 1-25.010176-25.010177v-27.761296a20.841814 20.841814 0 0 1 20.841813-20.841814h42.934137a20.841814 20.841814 0 0 1 20.841814 20.841814v28.011398a25.010177 25.010177 0 0 1-24.676708 24.760075z" fill="#666666" p-id="6195"></path></svg>